<?xml version="1.0" encoding="utf-8"?>
<!-- Generator: Adobe Illustrator 16.0.0, SVG Export Plug-In . SVG Version: 6.00 Build 0)  -->
<!DOCTYPE svg PUBLIC "-//W3C//DTD SVG 1.1//EN" "http://www.w3.org/Graphics/SVG/1.1/DTD/svg11.dtd">
<svg version="1.1" xmlns="http://www.w3.org/2000/svg" xmlns:xlink="http://www.w3.org/1999/xlink" x="0px" y="0px" width="960px"
	 height="560px" viewBox="0 0 960 560" enable-background="new 0 0 960 560" xml:space="preserve">
<g id="Layer_1" display="none">
	
		<image display="inline" overflow="visible" width="1300" height="1243" xlink:href="1A03F6A5E49DE12B.jpg"  transform="matrix(0.4932 0 0 0.4932 116.4756 1)">
	</image>
</g>
<g id="Layer_2">
	<path opacity="0.56" fill="#B70000" d="M246.609,118.724c3-0.375,7.974-2.63,11.136-3.792c3.307-1.216,6.28-2.249,9.841-2.688
		c2.959-0.365,7.098-0.93,9.991-0.249c2.381,0.561,3.388,2.747,4.917,4.567c1.797,2.139,2.95,3.643,4.449,5.887
		c1.02,1.526,3.11,3.81,5.323,3.068c2.022-0.677,1.872-3.222,2.526-4.74c1.141-2.647,3.207-4.777,6.182-6.495
		c5.356-0.354,10.802-0.526,16.136-0.782c4.261-0.205,7.266,1.131,11.264,2.75c2.087,0.845,3.823,0.354,4.626,2.302
		c1.048,2.543,3.63,5.973,3.624,8.823c-0.012,5.754-3.17,11.818-2.931,17.381c0.538,12.51-15.724,12.659-24.501,13.492
		c-4.761,0.452-9.352-0.5-13.949-1.262c-3.14-0.521-2.425-1.81-3.737-4.486c-0.904-1.844-1.703-4.67-3.825-2.707
		c-2.019,1.868-1.184,5.324-4.379,6.477c-4.325,1.56-10.93,1.859-15.614,2.472c-4.226,0.553-8.093,0.1-11.938-1.736
		c-5.096-2.432-6.031-4.716-7.325-10.219c-0.917-3.9-2.715-7.57-3.664-11.468c-1.002-4.121-0.931-14.226,2.489-17.319"/>
</g>
</svg>
