<?xml version="1.0" encoding="utf-8"?>
<!-- Generator: Adobe Illustrator 16.0.0, SVG Export Plug-In . SVG Version: 6.00 Build 0)  -->
<!DOCTYPE svg PUBLIC "-//W3C//DTD SVG 1.1//EN" "http://www.w3.org/Graphics/SVG/1.1/DTD/svg11.dtd">
<svg version="1.1" xmlns="http://www.w3.org/2000/svg" xmlns:xlink="http://www.w3.org/1999/xlink" x="0px" y="0px" width="960px"
	 height="560px" viewBox="0 0 960 560" enable-background="new 0 0 960 560" xml:space="preserve">
<g id="Layer_1" display="none">
	
		<image display="inline" overflow="visible" width="1000" height="1000" xlink:href="../../../../../../../Downloads/human-muscle-anatomy.jpg"  transform="matrix(0.5549 0 0 0.5549 177.1895 5.0625)">
	</image>
</g>
<g id="chest" display="none">
	
		<radialGradient id="SVGID_1_" cx="317.7148" cy="133.0098" r="53.0884" gradientTransform="matrix(1 0 0 1.1933 0 -25.709)" gradientUnits="userSpaceOnUse">
		<stop  offset="0" style="stop-color:#FFFFFF"/>
		<stop  offset="0.9956" style="stop-color:#C11616;stop-opacity:0.7"/>
	</radialGradient>
	<path display="inline" fill="url(#SVGID_1_)" d="M307.998,108.999c2.489,0.772,3.375,2.473,5.667,4
		c2.575,1.716,4.396,1.821,7.083,0.416c5.229-2.733,6.997-6.114,13.583-7.083c5.598-0.823,8.671-1.719,13.991,0.01
		c4.666,1.516,11.293,2.183,14.927,5.739c7.43,7.271,4.427,20.333,1.407,28.9c-1.102,3.126-8.991,18.351-20.991,18.758
		c-5.039,0.171-9.887-1.409-14.667-3.074c-4.684-1.631-6.26-5.89-12.213-7.937c-4.923-1.693-5.466,6.365-9.861,8.529
		c-4.708,2.318-10.078,3.329-15.259,3.407c-8.689,0.131-15.901-7.799-19.333-15c-3.302-6.928-6.654-22.333-3.584-30.584
		c2.19-5.885,13.259-7.539,19.233-8.1c4.042-0.379,8.352-0.57,12.351,0.017c3.797,0.557,7.202,2.376,11,2.333"/>
</g>
<g id="ab1" display="none">
	<path display="inline" fill="none" d="M296.331,160.332c-2.479,2.457-3.617,9.717-3.926,13.074
		c-0.132,1.433-0.921,7.171-0.024,8.266c1.795,2.189,4.404-1.031,5.858-2.098c7.025-5.157,19.773-5.718,17.35-17.574
		c-1.085-5.309-4.212-5.646-8.258-3.334c-3.794,2.168-7.393,1.216-11.333,2.667"/>
	<path display="inline" fill="none" d="M320.331,156.999c-1.885-0.15-2.52,7.602-2.333,9.667c0.343,3.8,3.497,4.4,6.472,5.696
		c3.613,1.574,6.801,4.484,10.469,5.744c10.201,3.505,5.928-10.468,3.059-15.107c-1.833-2.963-4.226-3.66-7.316-4.352
		c-3.085-0.69-6.476-2.25-9.684-1.981"/>
	<path display="inline" fill="none" d="M340.998,209.332c0-7.809,1.212-17.669-1-25"/>
	<path display="inline" fill="none" d="M317.999,172.33c0.111-0.111,0.222-0.222,0.333-0.333"/>
	<radialGradient id="SVGID_2_" cx="316.7061" cy="218.7344" r="47.7755" gradientUnits="userSpaceOnUse">
		<stop  offset="0.0092" style="stop-color:#FFFFFF"/>
		<stop  offset="0.9986" style="stop-color:#15FF17;stop-opacity:0.7"/>
	</radialGradient>
	<path display="inline" fill="url(#SVGID_2_)" d="M340.531,184.969c0,5.659,0.373,10.824,0.849,16.281
		c0.455,5.21-0.249,10.838-1.03,16.08c-0.828,5.551-1.645,11.159-2.758,16.667c-1.035,5.125-1.116,10.296-1.91,15.667
		c-0.756,5.12-2.552,9.517-4.601,14.334c-1.884,4.431-1.401,12.025-4.426,15.249c-3.464,3.691-10.462,2.342-12.925-1.575
		c-2.686-4.271-4.898-9.492-7.231-14.171c-2.483-4.982-5.144-10.347-6.518-15.82c-1.292-5.141-3.439-9.789-4.982-14.93
		c-1.58-5.267,0.023-11.726-1.243-17.087c-1.298-5.499-0.507-8.413-1.798-14.413c-1.144-5.315,0.604-11.228,0-16.918
		c-0.275-2.591,0.249-5.085-0.276-7.687c-0.553-2.746,0.173-4.935,0.648-7.649c1.242-7.097,3.79-7.82,10.352-9.315
		c4.923-1.122,6.342-2.88,11.567-3.391c3.877-0.379,10.946-0.514,14.434,1.28c2.89,1.486,7.686,1.946,9.407,4.758
		c3.217,5.254,5.304,16.35,2.574,22.334"/>
</g>
<g id="left_bis" display="none">
	<path display="inline" fill="none" d="M261.75,130.25c-5.308,4.419-7.529,13.467-9.5,19.763
		c-2.065,6.597-3.622,16.165-2.257,22.981c0.755,3.771,0.417,7.546,0.757,11.506c0.334,3.877,3.945,6.155,4.542,9.719
		c2.546-0.91,5.646-6.824,6.958-9.219c1.831-3.342,3.109-6.919,5.062-10.182c3.824-6.387,5.715-14.162,4.938-21.818
		c-0.456-4.482-2.574-8.732-3.194-13.056c-0.609-4.25-1.116-8.939-3.349-12.651c-2.193-0.641-3.194,2.114-4.457,3.457"/>
	<path display="inline" fill="none" d="M371.75,130.5c0.503-0.505-0.474,1.346-0.695,2c-0.341,1.009-0.927,2.037-1.249,3.056
		c-0.638,2.017-0.769,4.164-1.354,6.194c-1.266,4.391-1.596,8.002-0.938,12.487c0.653,4.456,1.432,8.017,3.236,12.263
		c1.625,3.823,2.248,7.496,3.939,11.055c1.938,4.078,3.04,7.505,6.006,11.014c1.775,2.1,5.147,7.727,8.262,7.388
		c2.08-7.522,2.565-15.896,2.543-23.957c-0.011-4.08,0.018-8.199-0.737-12c-0.777-3.915-2.987-7.543-4.512-11.25
		c-3.127-7.605-7.405-14.825-14.501-19.25"/>
	<path display="inline" fill="none" d="M260.5,151c-0.217,0.153-0.217,0.236,0,0.25"/>
	<path display="inline" fill="none" d="M261,128c-0.083,0.083-0.167,0.167-0.25,0.25"/>
	<path display="inline" fill="none" d="M264.25,128.25c0-0.167,0-0.333,0-0.5"/>
	<radialGradient id="SVGID_3_" cx="261.0508" cy="159.6973" r="25.625" gradientUnits="userSpaceOnUse">
		<stop  offset="0.0092" style="stop-color:#FFFFFF"/>
		<stop  offset="1" style="stop-color:#000FA9;stop-opacity:0.7"/>
	</radialGradient>
	<path display="inline" fill="url(#SVGID_3_)" d="M265.897,125.434c-6.893,3.468-11.314,12.511-13.155,19.304
		c-2.095,7.735-3.491,16.154-3.493,24.263c-0.001,9.167,1.658,16.884,5.312,24.961c6.079-5.746,12.048-12.434,15.188-20.211
		c3.061-7.584,3.574-15.894,2.75-24.25C271.642,140.794,265.897,134.502,265.897,125.434"/>
</g>
<g id="right_bs" display="none">
	<radialGradient id="SVGID_4_" cx="380.2959" cy="161.3594" r="26.0092" gradientUnits="userSpaceOnUse">
		<stop  offset="0.0092" style="stop-color:#FFFFFF"/>
		<stop  offset="1" style="stop-color:#000FA9;stop-opacity:0.7"/>
	</radialGradient>
	<path display="inline" fill="url(#SVGID_4_)" d="M370.5,126.75c0.958,1.027-2.012,8.383-2.25,10.5
		c-0.416,3.693-0.67,8.325,0.007,11.993c1.441,7.812,2.209,16.243,4.243,24.007c1.187,4.532,4.088,9.261,6.688,13.262
		c1.349,2.076,2.695,4.371,4.75,5.813c1.647,1.156,4.493,1.445,5.118,3.643c4.312-5.827,3.613-16.671,3.694-23.967
		c0.097-8.781-2.044-15.952-5.806-23.751c-1.91-3.96-4.206-8.075-7.506-11.188c-1.718-1.62-3.578-2.762-5.125-4.625
		c-1.329-1.601-2.315-4-4.062-5.188"/>
</g>
<g id="left_shoulder" display="none">
	<radialGradient id="SVGID_5_" cx="270.0254" cy="117.1396" r="21.078" gradientUnits="userSpaceOnUse">
		<stop  offset="0.0092" style="stop-color:#FFFFFF"/>
		<stop  offset="0.9658" style="stop-color:#009CD4;stop-opacity:0.7"/>
	</radialGradient>
	<path display="inline" fill="url(#SVGID_5_)" d="M263.499,122.666c-0.167-5.526,7.183-12.645,11.994-14.173
		c5.431-1.725,15.664-2.024,16.277-3.093c0,0-14.008-7.434-5.582-2.774c3.298,1.823-9.816-5.869-13.765-5.875
		c-7.424-0.012-12.253,1.639-16.991,7.7c-4.398,5.626-6.757,9.086-7.126,16.3c-0.26,5.092,1.577,13.032,5.194,16.78
		c2.382-2.325,3.667-5.938,6.062-8.468C261.921,126.571,262.728,125.927,263.499,122.666"/>
	<radialGradient id="SVGID_6_" cx="369.8018" cy="119.7822" r="22.0435" gradientUnits="userSpaceOnUse">
		<stop  offset="0.0092" style="stop-color:#FFFFFF"/>
		<stop  offset="0.9658" style="stop-color:#009CD4;stop-opacity:0.7"/>
	</radialGradient>
	<path display="inline" fill="url(#SVGID_6_)" d="M347.5,104.781c2.469-3.281,7.573-3.463,11.25-4.281
		c3.821-0.85,6.786-2.539,11-2.5c6.698,0.062,14.197,5.513,17.694,11.312c6.487,10.755,5.522,21.43,1.241,32.253
		c-2.706-0.59-5.128-3.01-6.935-5.064c-2.256-2.565-5.015-5.439-7-8.25c-2.123-3.005-3.317-7.028-5.487-10.25
		c-1.812-2.691-2.56-5.792-5.013-8c-2.025-1.822-5.586-2.549-8.256-3.438c-2.675-0.891-6.178,0.12-8.494-1.562"/>
</g>
<g id="right_thigh" display="none">
	<radialGradient id="SVGID_7_" cx="349.0146" cy="313.6504" r="39.5511" gradientUnits="userSpaceOnUse">
		<stop  offset="0.0092" style="stop-color:#FFFFFF"/>
		<stop  offset="0.9612" style="stop-color:#60006A;stop-opacity:0.7"/>
	</radialGradient>
	<path display="inline" fill="url(#SVGID_7_)" d="M351.535,260c-1.075,1.208-2.401,9.957-3.059,13.283
		c-1.019,5.147-3.2,10.295-4.26,15.333c-1.995,9.479-8.367,18.668-9.333,28.334c-0.896,8.961-0.466,20.182,1.251,28.748
		c0.873,4.353,0.246,8.976,0.749,13.585c0.472,4.329,4.618,8.365,8.666,8.365c3.913-2.398,5.209-8.739,7.251-12.773
		c2.354-4.649,4.2-9.296,5.667-14.259c1.645-5.564,1.687-11.765,2.742-17.333c1-5.28,1.749-10.714,2.267-16
		c0.472-4.814-0.449-8.886-1.333-13.333c-0.89-4.48-0.617-9.176-1.333-13.593c-0.63-3.883-2.574-7.599-4.176-11.149
		c-1.354-3-1.864-8.738-4.059-9.555"/>
	<radialGradient id="SVGID_8_" cx="288.0205" cy="314.666" r="39.0673" gradientUnits="userSpaceOnUse">
		<stop  offset="0.0092" style="stop-color:#FFFFFF"/>
		<stop  offset="0.9612" style="stop-color:#60006A;stop-opacity:0.7"/>
	</radialGradient>
	<path display="inline" fill="url(#SVGID_8_)" d="M285.105,261.439c-0.828,2.117-0.379,2.999-0.846,5.486
		c-0.489,2.609-1.517,5.169-2.509,7.483c-2.061,4.802-4.375,9.277-5.426,14.258c-2.205,10.444-2.72,21.813-1.64,32.667
		c1.021,10.262,4.424,20.123,5.909,30.074c3.425,22.956,13.265,15.617,11.407,15.624c3.25-2.032,5.248-5.003,5.667-9.698
		c0.479-5.363,0.782-10.475,1.333-16c0.247-2.478,5.358-18.984,1.409-31.408c-2.617-8.232-7.188-15.845-9.334-24
		c-2.154-8.187-0.176-20.657-5.26-24.737"/>
	<path display="inline" fill="none" d="M351.667,256.667c1.824,2.218-1.027,10.477-1.99,15.333
		c-1.067,5.379-3.013,11.008-4.75,16.334c-3.281,10.061-8.594,18.523-8.594,29.333c0,10.884-1.98,21.845-0.408,32.407
		c0.755,5.071,1.095,9.72,4.325,14.016c2.887,3.84,5.602,8.396,8.083,1.928c3.658-9.539,9.36-17.935,11.333-28.01
		c2.092-10.682,4.773-21.064,3.684-32.358c-0.792-8.21-0.755-17.209-2.333-25.333c-0.706-3.634-3.008-7.215-4.34-10.659
		c-1.442-3.727-3.053-7.601-4.677-11.324"/>
	<path display="inline" fill="none" d="M286,260c1.352,3.832,3.074,7.321,3.666,11.333c0.578,3.917,0.976,8.903,2.334,12.333"/>
</g>
<g id="back" display="none">
	<radialGradient id="SVGID_9_" cx="571.3574" cy="134.5615" r="57.9586" gradientUnits="userSpaceOnUse">
		<stop  offset="0.0092" style="stop-color:#FFFFFF"/>
		<stop  offset="0.992" style="stop-color:#0021BF;stop-opacity:0.7"/>
	</radialGradient>
	<path display="inline" fill="url(#SVGID_9_)" d="M554.875,79.875c-2.018,3.295-4.432,5.61-8.125,7.5
		c-3.294,1.686-7.332,3.522-10.75,5.125c-3.66,1.716-8.14,2.191-11.875,3.5c-5.14,1.801,0.124,4.855,3.363,6.5
		c3.74,1.899,8.568,2.028,10.762,4.875c2.257,2.93,2.251,7.119,2.25,10.625c-0.001,4.183,0.588,8.068,1.375,12
		c0.38,1.9,0.711,4.226,0.625,6.25c-0.088,2.075,0.455,4.064,1,6.25c0.863,3.464,0.781,7.443,2.812,10.493
		c4.569,6.864,8.942,13.966,12.695,21.258c3.575,6.95,5.322,12.681,6.118,17.375c1.668,9.833,4.252,8.229,4.918,8.292
		c3.959,0.375,4.307-7.925,5.207-10.917c1.211-4.024,2.52-7.157,3.875-11.25c1.872-5.652,6.128-11.026,9-16.25
		c2.453-4.459,5.585-8.902,6.125-14.125c0.509-4.93,1.371-10.457,1.875-15.5c0.442-4.427,0.614-8.059,1.875-12.25
		c0.633-2.104,1.51-5.334,1.75-7.5c0.211-1.904,1.006-2.486,1.75-4.25c1.394-3.302,4.951-4.507,7.938-5.931
		c3.586-1.708,6.778-3.147,9.825-5.645c1.771-1.451,2.217-0.111-0.139-2.175c-1.445-1.267-3.377-0.979-5.25-1.125
		c-4.006-0.312-9.944-2.123-14.125-3.5c-4.311-1.42-8.37-4.271-12-7.125c-1.702-1.338-3.031-4.28-5.5-8
		c-1.649-2.486-2.893-5.255-6-5c-3.886,0.319-4.85,2.157-8.688,0.313c-1.595-0.766-2.1-0.701-4.187,0.062
		c-2.192,0.803-2.574,1.795-3.916,3.375C557.786,75.097,556.27,77.598,554.875,79.875z"/>
</g>
<g id="glutes">
	<radialGradient id="SVGID_10_" cx="568.6865" cy="266.4717" r="39.2716" gradientUnits="userSpaceOnUse">
		<stop  offset="0.0092" style="stop-color:#FFFFFF"/>
		<stop  offset="0.9974" style="stop-color:#ADE900;stop-opacity:0.7"/>
	</radialGradient>
	<path fill="url(#SVGID_10_)" d="M530.125,232.728c0.968-0.237,2.576-0.182,3.471,0.051c0.992,0.258,2.048,1.015,2.945,1.503
		c2.037,1.107,4.017,2.318,5.942,3.608c3.832,2.569,7.493,5.448,10.759,8.712c6.061,6.058,11.374,16.761,13.51,24.398
		c3.378-9.237,9.137-16.771,16.124-23.124c3.197-2.907,8.76-5.7,12.623-7.208c3.5-1.366,10.882-4.893,14.426-4.592
		c3.074,14.592,4.346,31.641-0.305,46.136c-2.25,7.017-4.804,13.652-12.283,15.788c-8.857,2.529-8.845,3.335-16.417,0.916
		c-6.748-2.155-12.233-5.332-14.421-12.581c-4.441,4.697-4.504,11.12-11.667,12.167c-7.269,1.062-14.465-0.833-20.833-3.334
		c-2.729-2.09-5.805-7.771-7.5-13.666c-1.458-5.067-2.271-13-1.524-18.528c0.77-5.7,1.733-10.83,2.025-16.974
		c0.133-2.796,0.545-5.01,1.515-7.486c0.691-1.767,2.402-5.517,1.36-5.014"/>
	<path fill="#ADE900" d="M596.669,394.336c-0.387,0.445-0.859,0.418-1.333,0"/>
	<path fill="none" d="M607.002,394.336c0.111,0.111,0.223,0.222,0.334,0.333"/>
</g>
<g id="calves" display="none">
	<radialGradient id="SVGID_11_" cx="598.0127" cy="425.3076" r="29.8247" gradientUnits="userSpaceOnUse">
		<stop  offset="0.0092" style="stop-color:#FFFFFF"/>
		<stop  offset="0.9936" style="stop-color:#A90021;stop-opacity:0.7"/>
	</radialGradient>
	<path display="inline" fill="url(#SVGID_11_)" d="M593.668,392.333c-2.738,4.179-5.793,7.207-7.344,11.982
		c-1.63,5.022-3.146,9.384-3.655,14.685c-1.032,10.742-2.737,21.819-1.676,32.666c0.456,4.662,1.632,8.482,3.882,12.084
		c2.688-0.58,4.625-2.875,6.875-5.875c2.653-3.537,3.979-7.11,6.177-10.518c1.937,7.372,3.302,11.396,11.948,10.893
		c5.473-9.284,6.384-18.185,4.785-28.584c-0.839-5.456-1.147-10.209-2.992-15.315c-1.891-5.233,0.165-11.248-1.723-16.352
		c-0.659-1.781-1.729-3.755-2.529-5.415c-0.407-0.845-1.968-4.812-2.482-5.185c-3.57-2.579-7.623,4.889-9.266,7.307
		C594.969,393.713,594.666,392.25,593.668,392.333"/>
	<radialGradient id="SVGID_12_" cx="545.7061" cy="423.2812" r="30.2366" gradientUnits="userSpaceOnUse">
		<stop  offset="0.0092" style="stop-color:#FFFFFF"/>
		<stop  offset="0.9936" style="stop-color:#A90021;stop-opacity:0.7"/>
	</radialGradient>
	<path display="inline" fill="url(#SVGID_12_)" d="M535.25,384.375c3.853,0.759,7.041,6.725,8.16,10.194
		c1.146-1.942,0.867-5.989,3.35-4.573c1.602,0.913,2.848,5.36,3.993,6.916c2.523,3.428,6.238,7.566,7.517,11.49
		c1.562,4.797,0.608,10.323,2.141,15.185c1.537,4.88,2.592,10.072,2.592,15.415c0,3.531,1.716,22.979-1.559,23.183
		c-1.208,0.075-5.73-2.373-6.818-3.06c-1.715-1.082-2.503-2.315-3.956-3.789c-2.696-2.735-3.496-6.411-5.332-9.551
		c-1.876,4.729,1.783,11.353-5.668,11.551c-6.343,0.169-7.303-5.049-8.982-10.018c-1.738-5.14-2.969-9.484-2.685-15.316
		c0.266-5.469,2.062-10.381,2.074-16c0.022-11.004-0.714-21.156,3.983-31.512c-1.338,2.704,0.13,0.093,0,0"/>
</g>
<g id="triceps" display="none">
	<path display="inline" fill="none" d="M510.5,123c-11.448,5.001-15.67,18.68-17.498,30c-1.015,6.28-2.002,12.323-2.002,19
		c0,5.325-0.191,15.028,2.889,18.937c3.325-8.668-0.398-30.154,9.109-34.985c7.452,5.184-2.335,21.08-0.923,28.471
		c4.09-0.149,13.026-8.41,15.573-11.813c4.365-5.833,5.85-13.004,5.852-20.109c0.002-7.783-2.709-13.888-3.488-21.5
		c-1.094-10.677-5.04-9.944-14.012-7"/>
	<path display="inline" fill="none" d="M629,123c-11.548-2.492-9.156,35.742-9.525,41.974c-0.25,4.207,1.349,6.829,2.053,10.5
		c0.781,4.071-0.13,8.378,0.447,12.526c0.413,2.971,2.159,9.203,6.535,7.424c3.474-1.412,2.993-8.426,2.99-11.424
		c-0.006-5.771,1.062-9.6,0.475-15c-0.487-4.474-2.382-15.38,3.525-9.5c3.804,3.787,2.035,9.232,2.988,14.012
		c1.016,5.089,2.262,10.566,2.111,15.948c8.756-9.434,4.975-25.137,4.4-36.96c-0.393-8.084-4.378-30.18-15.5-29.5"/>
	<path display="inline" fill="none" d="M499.5,130c0.6,0.838,1.241,1.381,1.5,0.5"/>
	<path display="inline" fill="none" d="M517,128.5c-0.55-0.07-0.68-0.452-0.5-1"/>
	<path display="inline" fill="none" d="M629.5,130.5c-0.373,0.04-0.54-0.127-0.5-0.5"/>
	<path display="inline" fill="none" d="M632.5,121c0.167-0.167,0.333-0.333,0.5-0.5"/>
	<path display="inline" fill="none" d="M639.5,132c0.167-0.167,0.333-0.333,0.5-0.5"/>
	<radialGradient id="SVGID_13_" cx="518" cy="131.5" r="0.5" gradientUnits="userSpaceOnUse">
		<stop  offset="0.0092" style="stop-color:#FFFFFF"/>
		<stop  offset="0.9936" style="stop-color:#E95B00;stop-opacity:0.7"/>
		<stop  offset="1" style="stop-color:#EA5F07;stop-opacity:0.7095"/>
	</radialGradient>
	<path display="inline" fill="url(#SVGID_13_)" d="M627.881,122.206c-5.94,3.134-6.838,15.878-7.869,21.794
		c-1.352,7.752-1.602,16.396-0.487,23.974c0.945,6.428-1.274,18.367,2.84,23.647c7.218,9.263,9.153-7.257,9.636-12.121
		c0.846-8.539-3.819-16.313-0.402-23.95c10.23,0.161,7.801,25.03,8.478,30.875c0.752,0.138,1.6,0.17,2.351,0.002
		c2.759-11.547,2.308-23.651,0.588-35.438c-0.771-5.274-0.918-12.286-2.627-17.375C638.842,129.013,633.162,119.42,627.881,122.206z
		"/>
	<radialGradient id="SVGID_14_" cx="506.2852" cy="156.0088" r="25.8215" gradientUnits="userSpaceOnUse">
		<stop  offset="0.0092" style="stop-color:#FFFFFF"/>
		<stop  offset="0.9936" style="stop-color:#E95B00;stop-opacity:0.7"/>
	</radialGradient>
	<path display="inline" fill="url(#SVGID_14_)" d="M506,124.5c0.364,0.425,0.518,0.901,0.462,1.426
		c-9.1,6.138-11.929,16.646-12.974,26.562c-0.645,6.117-1.037,11.603-1.99,17.51c-0.709,4.394-2.832,11.655,2.002,14.562
		c5.332-7.831,1.016-23.543,10.375-29.508c3.758,7.875,1.042,15.59-0.4,23.448c-0.628,3.418-2.021,10,2.525,10.387
		c4.174,0.355,7.346-6.882,8.875-9.887c4.014-7.89,6.644-13.624,7.125-22.5c0.451-8.32-0.061-15.739-2.375-23.014
		c-1.094-3.441-0.646-8.421-4.613-9.998c-3.909-1.553-7.059,2.196-10.512,3.512"/>
	<path display="inline" fill="none" d="M633.5,127c0.333,0,0.667,0,1,0"/>
	<path display="inline" fill="none" d="M641,138.5c0.809,0.373,0.976,0.706,0.5,1"/>
	<path display="inline" fill="none" d="M644.5,163c-0.549,0.18-0.93,0.049-1-0.5"/>
	<path display="inline" fill="none" d="M647,174.5c0.04,0.373-0.127,0.54-0.5,0.5"/>
	<path display="inline" fill="none" d="M648,166.5c0-0.333,0-0.667,0-1"/>
	<path display="inline" fill="none" d="M646.5,159c-0.167,0-0.333,0-0.5,0"/>
	<path display="inline" fill="none" d="M521,126.5c0.167,0,0.333,0,0.5,0"/>
</g>
</svg>
