<?xml version="1.0" encoding="utf-8"?>
<!-- Generator: Adobe Illustrator 16.0.0, SVG Export Plug-In . SVG Version: 6.00 Build 0)  -->
<!DOCTYPE svg PUBLIC "-//W3C//DTD SVG 1.1//EN" "http://www.w3.org/Graphics/SVG/1.1/DTD/svg11.dtd">
<svg version="1.1" xmlns="http://www.w3.org/2000/svg" xmlns:xlink="http://www.w3.org/1999/xlink" x="0px" y="0px" width="960px"
	 height="560px" viewBox="0 0 960 560" enable-background="new 0 0 960 560" xml:space="preserve">
<g id="Layer_1" display="none">
	
		<image display="inline" overflow="visible" width="1000" height="1000" xlink:href="../../Downloads/human-muscle-anatomy.jpg"  transform="matrix(0.5549 0 0 0.5549 177.6055 3.1045)">
	</image>
</g>
<g id="chest" display="none">
	
		<radialGradient id="SVGID_1_" cx="317.7148" cy="133.0098" r="53.0884" gradientTransform="matrix(1 0 0 1.1933 0 -25.709)" gradientUnits="userSpaceOnUse">
		<stop  offset="0" style="stop-color:#FFFFFF"/>
		<stop  offset="0.9956" style="stop-color:#C11616;stop-opacity:0.7"/>
	</radialGradient>
	<path display="inline" fill="url(#SVGID_1_)" d="M307.998,108.999c2.489,0.772,3.375,2.473,5.667,4
		c2.575,1.716,4.396,1.821,7.083,0.416c5.229-2.733,6.997-6.114,13.583-7.083c5.598-0.823,8.671-1.719,13.991,0.01
		c4.666,1.516,11.293,2.183,14.927,5.739c7.43,7.271,4.427,20.333,1.407,28.9c-1.102,3.126-8.991,18.351-20.991,18.758
		c-5.039,0.171-9.887-1.409-14.667-3.074c-4.684-1.631-6.26-5.89-12.213-7.937c-4.923-1.693-5.466,6.365-9.861,8.529
		c-4.708,2.318-10.078,3.329-15.259,3.407c-8.689,0.131-15.901-7.799-19.333-15c-3.302-6.928-6.654-22.333-3.584-30.584
		c2.19-5.885,13.259-7.539,19.233-8.1c4.042-0.379,8.352-0.57,12.351,0.017c3.797,0.557,7.202,2.376,11,2.333"/>
</g>
<g id="ab1" display="none">
	<path display="inline" fill="none" d="M296.331,160.332c-2.479,2.457-3.617,9.717-3.926,13.074
		c-0.132,1.433-0.921,7.171-0.024,8.266c1.795,2.189,4.404-1.031,5.858-2.098c7.025-5.157,19.773-5.718,17.35-17.574
		c-1.085-5.309-4.212-5.646-8.258-3.334c-3.794,2.168-7.393,1.216-11.333,2.667"/>
	<path display="inline" fill="none" d="M320.331,156.999c-1.885-0.15-2.52,7.602-2.333,9.667c0.343,3.8,3.497,4.4,6.472,5.696
		c3.613,1.574,6.801,4.484,10.469,5.744c10.201,3.505,5.928-10.468,3.059-15.107c-1.833-2.963-4.226-3.66-7.316-4.352
		c-3.085-0.69-6.476-2.25-9.684-1.981"/>
	<path display="inline" fill="none" d="M340.998,209.332c0-7.809,1.212-17.669-1-25"/>
	<path display="inline" fill="none" d="M317.999,172.33c0.111-0.111,0.222-0.222,0.333-0.333"/>
	<radialGradient id="SVGID_2_" cx="316.7061" cy="218.7344" r="47.7755" gradientUnits="userSpaceOnUse">
		<stop  offset="0.0092" style="stop-color:#FFFFFF"/>
		<stop  offset="0.9986" style="stop-color:#15FF17;stop-opacity:0.7"/>
	</radialGradient>
	<path display="inline" fill="url(#SVGID_2_)" d="M340.531,184.969c0,5.659,0.373,10.824,0.849,16.281
		c0.455,5.21-0.249,10.838-1.03,16.08c-0.828,5.551-1.645,11.159-2.758,16.667c-1.035,5.125-1.116,10.296-1.91,15.667
		c-0.756,5.12-2.552,9.517-4.601,14.334c-1.884,4.431-1.401,12.025-4.426,15.249c-3.464,3.691-10.462,2.342-12.925-1.575
		c-2.686-4.271-4.898-9.492-7.231-14.171c-2.483-4.982-5.144-10.347-6.518-15.82c-1.292-5.141-3.439-9.789-4.982-14.93
		c-1.58-5.267,0.023-11.726-1.243-17.087c-1.298-5.499-0.507-8.413-1.798-14.413c-1.144-5.315,0.604-11.228,0-16.918
		c-0.275-2.591,0.249-5.085-0.276-7.687c-0.553-2.746,0.173-4.935,0.648-7.649c1.242-7.097,3.79-7.82,10.352-9.315
		c4.923-1.122,6.342-2.88,11.567-3.391c3.877-0.379,10.946-0.514,14.434,1.28c2.89,1.486,7.686,1.946,9.407,4.758
		c3.217,5.254,5.304,16.35,2.574,22.334"/>
</g>
<g id="left_bis" display="none">
	<path display="inline" fill="none" d="M261.75,130.25c-5.308,4.419-7.529,13.467-9.5,19.763
		c-2.065,6.597-3.622,16.165-2.257,22.981c0.755,3.771,0.417,7.546,0.757,11.506c0.334,3.877,3.945,6.155,4.542,9.719
		c2.546-0.91,5.646-6.824,6.958-9.219c1.831-3.342,3.109-6.919,5.062-10.182c3.824-6.387,5.715-14.162,4.938-21.818
		c-0.456-4.482-2.574-8.732-3.194-13.056c-0.609-4.25-1.116-8.939-3.349-12.651c-2.193-0.641-3.194,2.114-4.457,3.457"/>
	<path display="inline" fill="none" d="M371.75,130.5c0.503-0.505-0.474,1.346-0.695,2c-0.341,1.009-0.927,2.037-1.249,3.056
		c-0.638,2.017-0.769,4.164-1.354,6.194c-1.266,4.391-1.596,8.002-0.938,12.487c0.653,4.456,1.432,8.017,3.236,12.263
		c1.625,3.823,2.248,7.496,3.939,11.055c1.938,4.078,3.04,7.505,6.006,11.014c1.775,2.1,5.147,7.727,8.262,7.388
		c2.08-7.522,2.565-15.896,2.543-23.957c-0.011-4.08,0.018-8.199-0.737-12c-0.777-3.915-2.987-7.543-4.512-11.25
		c-3.127-7.605-7.405-14.825-14.501-19.25"/>
	<path display="inline" fill="none" d="M260.5,151c-0.217,0.153-0.217,0.236,0,0.25"/>
	<path display="inline" fill="none" d="M261,128c-0.083,0.083-0.167,0.167-0.25,0.25"/>
	<path display="inline" fill="none" d="M264.25,128.25c0-0.167,0-0.333,0-0.5"/>
	<radialGradient id="SVGID_3_" cx="261.0508" cy="159.6973" r="25.625" gradientUnits="userSpaceOnUse">
		<stop  offset="0.0092" style="stop-color:#FFFFFF"/>
		<stop  offset="1" style="stop-color:#000FA9;stop-opacity:0.7"/>
	</radialGradient>
	<path display="inline" fill="url(#SVGID_3_)" d="M265.897,125.434c-6.893,3.468-11.314,12.511-13.155,19.304
		c-2.095,7.735-3.491,16.154-3.493,24.263c-0.001,9.167,1.658,16.884,5.312,24.961c6.079-5.746,12.048-12.434,15.188-20.211
		c3.061-7.584,3.574-15.894,2.75-24.25C271.642,140.794,265.897,134.502,265.897,125.434"/>
</g>
<g id="right_bs" display="none">
	<radialGradient id="SVGID_4_" cx="380.2959" cy="161.3594" r="26.0092" gradientUnits="userSpaceOnUse">
		<stop  offset="0.0092" style="stop-color:#FFFFFF"/>
		<stop  offset="1" style="stop-color:#000FA9;stop-opacity:0.7"/>
	</radialGradient>
	<path display="inline" fill="url(#SVGID_4_)" d="M370.5,126.75c0.958,1.027-2.012,8.383-2.25,10.5
		c-0.416,3.693-0.67,8.325,0.007,11.993c1.441,7.812,2.209,16.243,4.243,24.007c1.187,4.532,4.088,9.261,6.688,13.262
		c1.349,2.076,2.695,4.371,4.75,5.813c1.647,1.156,4.493,1.445,5.118,3.643c4.312-5.827,3.613-16.671,3.694-23.967
		c0.097-8.781-2.044-15.952-5.806-23.751c-1.91-3.96-4.206-8.075-7.506-11.188c-1.718-1.62-3.578-2.762-5.125-4.625
		c-1.329-1.601-2.315-4-4.062-5.188"/>
</g>
<g id="left_shoulder" display="none">
	<radialGradient id="SVGID_5_" cx="270.0254" cy="117.1396" r="21.078" gradientUnits="userSpaceOnUse">
		<stop  offset="0.0092" style="stop-color:#FFFFFF"/>
		<stop  offset="0.9658" style="stop-color:#009CD4;stop-opacity:0.7"/>
	</radialGradient>
	<path display="inline" fill="url(#SVGID_5_)" d="M263.499,122.666c-0.167-5.526,7.183-12.645,11.994-14.173
		c5.431-1.725,15.664-2.024,16.277-3.093c0,0-14.008-7.434-5.582-2.774c3.298,1.823-9.816-5.869-13.765-5.875
		c-7.424-0.012-12.253,1.639-16.991,7.7c-4.398,5.626-6.757,9.086-7.126,16.3c-0.26,5.092,1.577,13.032,5.194,16.78
		c2.382-2.325,3.667-5.938,6.062-8.468C261.921,126.571,262.728,125.927,263.499,122.666"/>
	<radialGradient id="SVGID_6_" cx="369.8018" cy="119.7822" r="22.0435" gradientUnits="userSpaceOnUse">
		<stop  offset="0.0092" style="stop-color:#FFFFFF"/>
		<stop  offset="0.9658" style="stop-color:#009CD4;stop-opacity:0.7"/>
	</radialGradient>
	<path display="inline" fill="url(#SVGID_6_)" d="M347.5,104.781c2.469-3.281,7.573-3.463,11.25-4.281
		c3.821-0.85,6.786-2.539,11-2.5c6.698,0.062,14.197,5.513,17.694,11.312c6.487,10.755,5.522,21.43,1.241,32.253
		c-2.706-0.59-5.128-3.01-6.935-5.064c-2.256-2.565-5.015-5.439-7-8.25c-2.123-3.005-3.317-7.028-5.487-10.25
		c-1.812-2.691-2.56-5.792-5.013-8c-2.025-1.822-5.586-2.549-8.256-3.438c-2.675-0.891-6.178,0.12-8.494-1.562"/>
</g>
<g id="right_thigh">
	<radialGradient id="SVGID_7_" cx="349.0146" cy="313.6504" r="39.5511" gradientUnits="userSpaceOnUse">
		<stop  offset="0.0092" style="stop-color:#FFFFFF"/>
		<stop  offset="0.9612" style="stop-color:#60006A;stop-opacity:0.7"/>
	</radialGradient>
	<path fill="url(#SVGID_7_)" d="M351.535,260c-1.075,1.208-2.401,9.957-3.059,13.283c-1.019,5.147-3.2,10.295-4.26,15.333
		c-1.995,9.479-8.367,18.668-9.333,28.334c-0.896,8.961-0.466,20.182,1.251,28.748c0.873,4.353,0.246,8.976,0.749,13.585
		c0.472,4.329,4.618,8.365,8.666,8.365c3.913-2.398,5.209-8.739,7.251-12.773c2.354-4.649,4.2-9.296,5.667-14.259
		c1.645-5.564,1.687-11.765,2.742-17.333c1-5.28,1.749-10.714,2.267-16c0.472-4.814-0.449-8.886-1.333-13.333
		c-0.89-4.48-0.617-9.176-1.333-13.593c-0.63-3.883-2.574-7.599-4.176-11.149c-1.354-3-1.864-8.738-4.059-9.555"/>
	<radialGradient id="SVGID_8_" cx="288.0205" cy="314.666" r="39.0673" gradientUnits="userSpaceOnUse">
		<stop  offset="0.0092" style="stop-color:#FFFFFF"/>
		<stop  offset="0.9612" style="stop-color:#60006A;stop-opacity:0.7"/>
	</radialGradient>
	<path fill="url(#SVGID_8_)" d="M285.105,261.439c-0.828,2.117-0.379,2.999-0.846,5.486c-0.489,2.609-1.517,5.169-2.509,7.483
		c-2.061,4.802-4.375,9.277-5.426,14.258c-2.205,10.444-2.72,21.813-1.64,32.667c1.021,10.262,4.424,20.123,5.909,30.074
		c3.425,22.956,13.265,15.617,11.407,15.624c3.25-2.032,5.248-5.003,5.667-9.698c0.479-5.363,0.782-10.475,1.333-16
		c0.247-2.478,5.358-18.984,1.409-31.408c-2.617-8.232-7.188-15.845-9.334-24c-2.154-8.187-0.176-20.657-5.26-24.737"/>
	<path fill="none" d="M351.667,256.667c1.824,2.218-1.027,10.477-1.99,15.333c-1.067,5.379-3.013,11.008-4.75,16.334
		c-3.281,10.061-8.594,18.523-8.594,29.333c0,10.884-1.98,21.845-0.408,32.407c0.755,5.071,1.095,9.72,4.325,14.016
		c2.887,3.84,5.602,8.396,8.083,1.928c3.658-9.539,9.36-17.935,11.333-28.01c2.092-10.682,4.773-21.064,3.684-32.358
		c-0.792-8.21-0.755-17.209-2.333-25.333c-0.706-3.634-3.008-7.215-4.34-10.659c-1.442-3.727-3.053-7.601-4.677-11.324"/>
	<path fill="none" d="M286,260c1.352,3.832,3.074,7.321,3.666,11.333c0.578,3.917,0.976,8.903,2.334,12.333"/>
</g>
</svg>
